<?xml version="1.0" encoding="UTF-8"?>
<svg id="Ebene_1" data-name="Ebene 1" xmlns="http://www.w3.org/2000/svg" viewBox="0 0 720.42 73.03">
  <path d="M0,0h52.17v10.43H0V0ZM20.87,73.03V10.43h10.43v62.6h-10.43Z"/>
  <path d="M60.73,73.03V0h10.43v73.03h-10.43ZM71.16,41.73h10.43v10.43h-10.43v-10.43ZM81.6,31.3h10.43v10.43h-10.43v-10.43ZM92.03,20.87h10.43s0,10.43,0,10.43h-10.43v-10.43ZM102.46,73.03V0h10.43v73.03h-10.43Z"/>
  <path d="M121.46,0h41.73v10.43h-41.73V0ZM121.46,73.03V10.43h10.43v62.6h-10.43ZM131.89,31.3h31.3v10.43h-31.3v-10.43ZM152.76,41.73h10.43v10.43h-10.43v-10.43ZM163.19,10.43h10.43v20.86h-10.43s0-20.86,0-20.86ZM163.19,52.17h10.43v20.87h-10.43v-20.87Z"/>
  <path d="M182.19,73.03V0h10.43v73.03h-10.43ZM192.62,10.43V0h41.73v10.43h-41.73ZM192.62,41.73v-10.43h31.3v10.43h-31.3ZM192.62,73.03v-10.43h41.73v10.43h-41.73Z"/>
  <path d="M242.92,73.03V20.87h10.43v52.17h-10.43ZM253.35,20.87v-10.43h10.43v10.43h-10.43ZM253.35,52.17h10.43v10.43h-10.43s0-10.43,0-10.43ZM263.79,10.43V0h10.43v10.43h-10.43ZM263.79,41.73h10.43v10.43h-10.43v-10.43ZM274.22,20.87v-10.43h10.43v10.43h-10.43ZM274.22,31.3h10.43v10.43h-10.43v-10.43ZM284.65,73.03V20.87h10.43v52.17h-10.43Z"/>
  <path d="M303.65,73.03V0h10.43v73.03h-10.43ZM314.08,10.43V0h20.87v10.43h-20.87ZM314.08,73.03v-10.43h20.87v10.43h-20.87ZM334.95,20.87v-10.43h10.43v10.43h-10.43ZM334.95,62.6v-10.43h10.43v10.43h-10.43ZM345.38,52.17v-31.3h10.43v31.3h-10.43Z"/>
  <path d="M364.38,62.6V10.43h10.43v52.17h-10.43ZM374.81,0h31.3v10.43h-31.3V0ZM374.81,62.6h31.3v10.43h-31.3v-10.43ZM385.25,41.73h10.43v10.43h-10.43v-10.43ZM395.68,31.3h10.43v10.43h-10.43v-10.43ZM406.11,10.43h10.43v10.43h-10.43v-10.43ZM406.11,31.3h10.43v31.3h-10.43v-31.3Z"/>
  <path d="M425.33,62.6V0h10.43v62.6h-10.43ZM435.76,62.6h31.3v10.43h-31.3v-10.43ZM467.06,62.6V0h10.43v62.6h-10.43Z"/>
  <path d="M486.06,73.03V0h10.43v73.03h-10.43ZM496.49,10.43V0h41.73v10.43h-41.73ZM496.49,41.73v-10.43h31.3v10.43h-31.3ZM496.49,73.03v-10.43h41.73v10.43h-41.73Z"/>
  <path d="M546.79,10.44h10.43v20.86h-10.43V10.44ZM546.79,52.17h10.43v10.43h-10.43v-10.43ZM557.22,0h31.3v10.43h-31.3V0ZM557.22,41.73v-10.43h31.3v10.43h-31.3ZM557.22,62.6h31.3v10.43h-31.3v-10.43ZM588.52,41.74h10.43v20.86h-10.43s0-20.86,0-20.86ZM588.53,10.43h10.43v10.43h-10.43v-10.43Z"/>
  <path d="M607.52,10.44h10.43v20.86h-10.43V10.44ZM607.52,52.17h10.43v10.43h-10.43v-10.43ZM617.95,0h31.3v10.43h-31.3V0ZM617.95,41.73v-10.43h31.3v10.43h-31.3ZM617.95,62.6h31.3v10.43h-31.3v-10.43ZM649.25,41.74h10.43v20.86h-10.43s0-20.86,0-20.86ZM649.26,10.43h10.43v10.43h-10.43v-10.43Z"/>
  <path d="M668.25,0h41.73v10.43h-41.73V0ZM668.25,73.03V10.43h10.43v62.6h-10.43ZM678.68,31.3h31.3v10.43h-31.3v-10.43ZM699.55,41.73h10.43v10.43h-10.43v-10.43ZM709.99,10.43h10.43v20.86h-10.43s0-20.86,0-20.86ZM709.99,52.17h10.43v20.87h-10.43v-20.87Z"/>
</svg>